<svg xmlns="http://www.w3.org/2000/svg" xmlns:xlink="http://www.w3.org/1999/xlink" width="99" height="76" viewBox="0 0 99 76"><defs><path id="a" d="M1631 1135.974h38.797v57.022H1631zm22.088 52.329c0-1.009-.838-1.83-1.871-1.83s-1.869.821-1.869 1.83c0 1.007.836 1.835 1.869 1.835s1.874-.828 1.87-1.835zm-16.478-4.761h27.579l.002-42.073h-27.58zm13.578-50.005h-5.478v-16.54h73.131v30.084h-5.479v-24.72h-62.174zm22.11 25.335h28.813v5.366h-28.814zm57.702-9.71v42.943h-26.057v-42.943zm-13.08 2.395c0 .338.282.619.63.619a.626.626 0 0 0 .629-.619.622.622 0 0 0-.629-.616.622.622 0 0 0-.63.616zm-3.118 2.033h7.496v-.59h-7.496zm5.005 35.186c0-.814-.675-1.471-1.503-1.471-.832 0-1.504.662-1.504 1.471 0 .813.676 1.476 1.504 1.476s1.503-.663 1.503-1.476zm7.012-33.077l-17.695.004v29.526c3.355.027 10.928.003 17.695-.035zm-24.708 10.735v7.617h-28.814v-2.94h19.314v-1.425h-19.314v-3.252z"/></defs><use fill="#fff" transform="translate(-1631 -1117)" xlink:href="#a"/></svg>