<svg xmlns="http://www.w3.org/2000/svg" xmlns:xlink="http://www.w3.org/1999/xlink" width="60" height="96" viewBox="0 0 60 96"><defs><path id="a" d="M1218 1181.997a2.998 2.998 0 0 1-3 2.999h-30c-1.658 0-3-1.341-3-2.999 0-1.659 1.342-3 3-3h30c1.658 0 3 1.341 3 3zm0 9a2.997 2.997 0 0 1-3 2.999h-30c-1.658 0-3-1.34-3-3 0-1.659 1.342-3 3-3h30c1.658 0 3 1.341 3 3zm-30 6h24c0 3.316-2.684 6-6 6h-12c-3.316 0-6-2.684-6-6zm42-60c0 16.311-9.832 18.21-11.678 35.999 0 1.659-1.342 3-3 3h-30.644c-1.659 0-3-1.341-3-3h-.006c-1.84-17.79-11.672-19.688-11.672-36 0-16.57 13.43-30 30-30s30 13.43 30 30zm-17.854-9c-34.875 8.249-18 30-18 30 0-12.001 8.813-14.814 9-14.438-6.187 6-9 26.437-9 26.437h6v-12c17.063.938 12-27.938 12-30z"/></defs><use fill="#18cfab" transform="translate(-1170 -1107)" xlink:href="#a"/></svg>