<svg xmlns="http://www.w3.org/2000/svg" xmlns:xlink="http://www.w3.org/1999/xlink" width="15" height="15" viewBox="0 0 15 15"><defs><path id="a" d="M515.904 2845.66l-2.015 2.008a2.056 2.056 0 0 1-2.918-.01l1.13-1.132c.345.096.79-.053 1.062-.324l1.284-1.279a1.04 1.04 0 0 0 .004-1.465l-1.091-1.104a1.028 1.028 0 0 0-1.46-.002l-1.284 1.277c-.286.286-.43.7-.312 1.06l-1.153 1.132a2.077 2.077 0 0 1 .008-2.928l2.018-2.01a2.058 2.058 0 0 1 2.918.008l1.818 1.837a2.077 2.077 0 0 1-.01 2.931zm-6.218 3.284a2.119 2.119 0 0 1-.01 2.985l-1.945 1.941a2.1 2.1 0 0 1-2.973-.008l-1.852-1.873a2.117 2.117 0 0 1 .01-2.985l1.945-1.94a2.098 2.098 0 0 1 2.973.007l-1.157 1.173c-.367-.124-.787.022-1.079.314l-1.2 1.197a1.06 1.06 0 0 0-.005 1.492l1.114 1.122a1.047 1.047 0 0 0 1.485.006l1.199-1.197c.278-.278.43-.734.335-1.086zm-2.42-.404l3.325-3.379a.694.694 0 0 1 .994.003.73.73 0 0 1-.003 1.019l-3.324 3.38a.694.694 0 0 1-.996-.005.732.732 0 0 1 .004-1.018z"/></defs><use fill="#1fdab5" transform="translate(-502 -2840)" xlink:href="#a"/></svg>