<svg xmlns="http://www.w3.org/2000/svg" xmlns:xlink="http://www.w3.org/1999/xlink" width="58" height="97" viewBox="0 0 58 97"><defs><path id="a" d="M227.418 1196.866h35.966v4.965c0 1.19-.964 2.165-2.143 2.165h-31.68c-1.178 0-2.143-.976-2.143-2.165zm-11.735-71.67c0-10.053 8.06-18.2 18.005-18.2 9.945 0 18.004 8.147 18.004 18.2 0 6.695-3.59 12.544-8.917 15.708-.76-7.4-1.607-15.665-1.607-15.708-.193-1.906-1.114-3.574-2.593-4.68-1.222-.909-2.798-1.42-4.437-1.42-2.1 0-4.094.804-5.487 2.21-1.254 1.28-1.94 2.991-1.94 4.822l-.01 15.848c-6.484-2.763-11.028-9.241-11.018-16.78zm53.296 54.729c0 2.568-.687 5.08-1.983 7.28l-3.633 6.208h-35.966c-10.01-10.25-15.09-21.179-15.861-25.87-.536-3.218 1.682-5.373 4.147-5.373 1.404 0 2.894.692 4.008 2.306.354.521.74 1.084 1.169 1.7 3.204 4.693 6.494 4.735 7.951 4.78h.032c.044 0 .097 0 .14-.013h.021c.515-.074.89-.508.89-1.028l.021-43.8c-.01-2.457 2.133-3.778 4.212-3.778 1.833 0 3.612 1.027 3.837 3.195 0 .044 2.765 27.072 2.775 27.157v.013h.01c.762-.684 2.026-1.083 3.473-1.083.536 0 1.094.054 1.661.16 1.833.37 13.836 4.28 19.784 6.241 1.993.65 3.333 2.523 3.333 4.636z"/></defs><use fill="#18cfab" transform="translate(-211 -1107)" xlink:href="#a"/></svg>